# AST/ASF file generated using VICON BodyLanguage
# -----------------------------------------------
:version 1.10
:name VICON
:units
  mass 1.0
  length 0.45
  angle deg
:documentation
   .ast/.asf automatically generated from VICON data using
   VICON BodyBuilder and BodyLanguage model FoxedUp or BRILLIANT.MOD
:root
   order TX TY TZ RX RY RZ
   axis XYZ
   position 0 0 0  
   orientation 0 -0 0 
:bonedata
  begin
     id 1 
     name lhipjoint
     direction 0.515797 -0.759363 0.396637 
     length 2.47888 
     axis 0 -0 0  XYZ
  end
  begin
     id 2 
     name lfemur
     direction 0.34202 -0.939693 0  
     length 6.81885  
     axis 0 -0 20  XYZ
    dof rx ry rz
    limits (-160.0 20.0)
           (-70.0 70.0)
           (-60.0 70.0)
  end
  begin
     id 3 
     name ltibia
     direction 0.342037 -0.939687 0   
     length 7.89258   
     axis 0 -0 20   XYZ
    dof rx
    limits (-10.0 170.0)
  end
  begin
     id 4 
     name lfoot
     direction 0.173497 -0.476678 0.861787   
     length 2.51543   
     axis -90 -1.13533e-015 20   XYZ
    dof rx rz
    limits (-45.0 90.0)
           (-70.0 20.0)
  end
  begin
     id 5 
     name ltoes
     direction 1.53564e-011 -4.21897e-011 1   
     length 1.21388   
     axis -90 -1.13533e-015 20   XYZ
    dof rx
    limits (-90.0 20.0)
  end
  begin
     id 6 
     name rhipjoint
     direction -0.489454 -0.772941 0.403729   
     length 2.43534  
     axis 0 -0 0  XYZ 
  end
  begin
     id 7 
     name rfemur
     direction -0.34202 -0.939693 0   
     length 7.10357   
     axis 0 -0 -20   XYZ
    dof rx ry rz
    limits (-160.0 20.0)
           (-70.0 70.0)
           (-70.0 60.0)
  end
  begin
     id 8 
     name rtibia
     direction -0.34202 -0.939693 0   
     length 9.16127   
     axis 0 -0 -20   XYZ
    dof rx
    limits (-10.0 170.0)
 end
 begin
     id 9 
     name rfoot
     direction -0.270974 -0.748671 0.605033   
     length 1.74894  
     axis -90 1.13533e-015 -20   XYZ
    dof rx rz
    limits (-45.0 90.0)
           (-20.0 70.0)
  end
  begin
     id 10 
     name rtoes
     direction -1.53557e-011 -4.21759e-011 1   
     length 0.787585   
     axis -90 1.13533e-015 -20   XYZ
    dof rx
    limits (-90.0 20.0)
  end
  begin
     id 11 
     name lowerback
     direction -0.0140249 0.999561 0.0260968   
     length 2.16963   
     axis 0 -0 0   XYZ
    dof rx ry rz
    limits (-20.0 45.0)
           (-30.0 30.0)
           (-30.0 30.0)
  end
  begin
     id 12 
     name upperback
     direction 0.00860018 0.999959 -0.002711   
     length 2.1726   
     axis 0 -0 0   XYZ
    dof rx ry rz
    limits (-20.0 45.0)
           (-30.0 30.0)
           (-30.0 30.0)
  end
  begin
     id 13 
     name thorax
     direction 0.015211 0.999782 -0.0143191   
     length 2.17061   
     axis 0 -0 0   XYZ
    dof rx ry rz
    limits (-20.0 45.0)
           (-30.0 30.0)
           (-30.0 30.0)
  end
  begin
     id 14 
     name lowerneck
     direction -0.0140143 0.999447 0.030145   
     length 2.26749   
     axis 0 -0 0   XYZ
    dof rx ry rz
    limits (-20.0 45.0)
           (-30.0 30.0)
           (-30.0 30.0)
  end
  begin
     id 15 
     name upperneck
     direction 0.118062 0.961438 -0.248392   
     length 2.22728   
     axis 0 -0 0   XYZ
    dof rx ry rz
    limits (-20.0 45.0)
           (-30.0 30.0)
           (-30.0 30.0)
  end
  begin
     id 16
     name head
     direction 0.0431885 0.9954 -0.085514  
     length 2.28786  
     axis 0 -0 0   XYZ
    dof rx ry rz
    limits (-20.0 45.0)
           (-30.0 30.0)
           (-30.0 30.0)
  end
  begin
     id 17 
     name lclavicle
     direction 0.912126 0.409548 0.0172323  
     length 4.31571  
     axis 0 -0 0   XYZ
    dof ry rz
    limits (-20.0 10.0)
           (0.0 20.0)
  end
  begin
     id 18 
     name lhumerus
     direction 1 -4.48977e-011 1.93091e-027   
     length 5.13658   
     axis 180 -30 -90   XYZ
    dof rx ry rz
    limits (-60.0 90.0)
           (-90.0 90.0)
           (-90.0 90.0)
  end
  begin
     id 19
     name lradius
     direction 1 -4.48916e-011 6.84018e-027   
     length 3.22473   
     axis 180 -30 -90   XYZ
    dof rx
    limits (-10.0 170.0)
  end
  begin
     id 20
     name lwrist
     direction 1 -4.48987e-011 7.01981e-027   
     length 1.61236   
     axis -4.37994e-015 90 90   XYZ
    dof ry
    limits (-180.0 0.0)
 end
  begin
     id 21 
     name lhand
     direction 1 -4.49037e-011 1.40335e-026   
     length 0.936406   
     axis -8.96029e-015 90 90   XYZ
    dof rx rz
    limits (-90.0 90.0)
           (-45.0 45.0)
  end
  begin
     id 22 
     name lfingers
     direction 1 -4.48886e-011 2.8104e-026   
     length 0.754955   
     axis -1.79203e-014 90 90   XYZ
    dof rx
    limits (0.0 90.0)
  end
  begin
     id 23
     name lthumb
     direction 0.707107 -6.34937e-011 0.707107   
     length 1.08397   
     axis -90 45 -4.48555e-014   XYZ
    dof rx rz
    limits (-45.0 45.0)
           (-45.0 45.0)
  end
  begin
     id 24 
     name rclavicle
     direction -0.947962 0.317997 0.0156638   
     length 4.86918  
     axis 0 -0 0   XYZ 
    dof ry rz
    limits (-10.0 20.0)
           (-20.0 0.0)
  end
  begin
     id 25 
     name rhumerus
     direction -1 -4.48951e-011 2.80534e-018  
     length 5.60911   
     axis 180 30 90   XYZ
    dof rx ry rz
    limits (-90.0 60.0)
           (-90.0 90.0)
           (-90.0 90.0)
  end
  begin
     id 26 
     name rradius
     direction -1 -4.4898e-011 2.11315e-027   
     length 3.38704   
     axis 180 30 90   XYZ
    dof rx
    limits (-10.0 170.0)
  end
  begin
     id 27 
     name rwrist
     direction -1 -4.48933e-011 7.02314e-027   
     length 1.69352   
     axis -4.37994e-015 -90 -90   XYZ
    dof ry
    limits (-180.0 0.0)
  end
  begin
     id 28
     name rhand
     direction -1 -4.48937e-011 1.40458e-026   
     length 0.755878   
     axis -8.96029e-015 -90 -90   XYZ
    dof rx rz
    limits (-90.0 90.0)
           (-45.0 45.0)
  end
  begin
     id 29
     name rfingers
     direction -1 -4.4901e-011 2.80737e-026   
     length 0.609409   
     axis -1.79203e-014 -90 -90   XYZ
    dof rx
    limits (0.0 90.0)
  end
  begin
     id 30
     name rthumb
     direction -0.707107 -6.34968e-011 0.707107   
     length 0.874992   
     axis -90 -45 4.48555e-014   XYZ
    dof rx rz
    limits (-45.0 45.0)
           (-45.0 45.0)
  end
:hierarchy
  begin
    root lhipjoint rhipjoint lowerback
    lhipjoint lfemur
    lfemur ltibia
    ltibia lfoot
    lfoot ltoes
    rhipjoint rfemur
    rfemur rtibia
    rtibia rfoot
    rfoot rtoes
    lowerback upperback
    upperback thorax
    thorax lowerneck lclavicle rclavicle
    lowerneck upperneck
    upperneck head
    lclavicle lhumerus
    lhumerus lradius
    lradius lwrist
    lwrist lhand lthumb
    lhand lfingers
    rclavicle rhumerus
    rhumerus rradius
    rradius rwrist
    rwrist rhand rthumb
    rhand rfingers
  end

#!OML:ASF C:\ViconDB\ViconDB\414\Spring2016\041811\Spring2016.ASF
:FULLY-SPECIFIED
:DEGREES
91
root 11.9507 18.2195 5.71461 -176.559 -6.90569 -177.622
lowerback -6.02522 0.92433 -1.19311
upperback 1.022 1.28707 0.770148
thorax 4.39369 0.596677 1.59158
lowerneck -13.128 3.3802 -4.30912
upperneck 25.1768 1.87978 10.2429
head 9.96581 1.15339 4.51312
rclavicle -1.24862e-014 -4.96962e-015
rhumerus -41.1227 -18.4543 -84.1318
rradius 31.4736
rwrist 50.8871
rhand -34.7195 -11.5288
rfingers 7.12502
rthumb -7.87402 -41.3622
lclavicle -1.24862e-014 -4.96962e-015
lhumerus -37.2416 -1.58326 90.6196
lradius 25.012
lwrist -35.9847
lhand -25.1218 13.1604
lfingers 7.12502
lthumb 1.39392 43.1356
rfemur 170.377 63.357 -164.412
rtibia 27.6101
rfoot -68.9128 -40.3974
rtoes -29.4663
lfemur -9.40397 -6.42417 -17.548
ltibia 25.7041
lfoot -22.5671 6.04279
ltoes -11.7214
92
root 11.9381 18.2178 5.70364 -176.528 -6.87306 -177.635
lowerback -6.0821 0.916936 -1.1796
upperback 1.02579 1.27885 0.728397
thorax 4.4313 0.593199 1.54126
lowerneck -13.1261 3.37025 -4.24266
upperneck 25.1964 1.85302 10.2047
head 9.97691 1.1413 4.48549
rclavicle 2.69726e-014 -7.95139e-016
rhumerus -41.1407 -18.5619 -84.1245
rradius 31.4469
rwrist 51.1487
rhand -34.7773 -11.7279
rfingers 7.12502
rthumb -7.92984 -41.5592
lclavicle 2.69726e-014 -7.95139e-016
lhumerus -37.2417 -1.59053 90.5477
lradius 25.0037
lwrist -36.1006
lhand -25.0794 13.1662
lfingers 7.12502
lthumb 1.43491 43.1411
rfemur 170.351 63.2173 -164.503
rtibia 27.5873
rfoot -68.7628 -40.4659
rtoes -29.3881
lfemur -9.3794 -6.50267 -17.6093
ltibia 25.7057
lfoot -22.6473 6.11856
ltoes -11.6134
93
root 11.9256 18.2166 5.69406 -176.521 -6.84583 -177.627
lowerback -6.06333 0.926436 -1.16383
upperback 1.01857 1.29066 0.717213
thorax 4.41336 0.599846 1.52145
lowerneck -13.1483 3.34909 -4.18112
upperneck 25.2448 1.82424 10.1188
head 10.0039 1.12352 4.44339
rclavicle 3.23398e-014 -3.97569e-015
rhumerus -41.1963 -18.5561 -84.135
rradius 31.5113
rwrist 51.0184
rhand -34.7456 -11.7832
rfingers 7.12502
rthumb -7.89921 -41.6156
lclavicle 3.23398e-014 -3.97569e-015
lhumerus -37.2185 -1.66771 90.5554
lradius 24.9797
lwrist -36.0217
lhand -25.0563 13.1106
lfingers 7.12502
lthumb 1.45721 43.0854
rfemur 170.26 62.9648 -164.631
rtibia 27.572
rfoot -68.4401 -40.5463
rtoes -29.3302
lfemur -9.33269 -6.57617 -17.65
ltibia 25.6927
lfoot -22.7038 6.19493
ltoes -11.6328
94
root 11.9136 18.2166 5.68402 -176.519 -6.82481 -177.646
lowerback -6.0474 0.941 -1.20789
upperback 1.02281 1.31281 0.729142
thorax 4.40678 0.609612 1.5604
lowerneck -13.1725 3.30305 -4.40119
upperneck 25.2508 1.74788 10.3465
head 10.0094 1.09128 4.5555
rclavicle 1.43498e-014 -7.15625e-015
rhumerus -41.2221 -18.5103 -84.1233
rradius 31.5985
rwrist 50.8716
rhand -34.6447 -11.7902
rfingers 7.12502
rthumb -7.8019 -41.6263
lclavicle 1.43498e-014 -7.15625e-015
lhumerus -37.257 -1.6603 90.6145
lradius 25.0276
lwrist -35.8993
lhand -25.0422 13.1713
lfingers 7.12502
lthumb 1.47085 43.146
rfemur 170.131 62.61 -164.831
rtibia 27.5579
rfoot -67.9865 -40.6126
rtoes -29.2456
lfemur -9.27239 -6.67451 -17.7271
ltibia 25.6711
lfoot -22.7761 6.30348
ltoes -11.6681
95
root 11.9024 18.2152 5.67274 -176.498 -6.79955 -177.679
lowerback -6.05849 0.956682 -1.24708
upperback 1.00869 1.33834 0.699212
thorax 4.39732 0.621941 1.55391
lowerneck -13.108 3.24841 -4.41567
upperneck 25.2094 1.66191 10.381
head 9.98897 1.05108 4.5569
rclavicle -9.26834e-015 -2.5842e-015
rhumerus -41.2456 -18.3149 -84.1808
rradius 31.6642
rwrist 50.5211
rhand -34.6732 -11.9607
rfingers 7.12502
rthumb -7.82939 -41.7958
lclavicle -9.26834e-015 -2.5842e-015
lhumerus -37.2688 -1.76203 90.6287
lradius 24.9893
lwrist -35.8751
lhand -25.1824 13.2729
lfingers 7.12502
lthumb 1.3354 43.2484
rfemur 170.03 62.2976 -165.017
rtibia 27.5405
rfoot -67.5633 -40.6853
rtoes -29.1543
lfemur -9.2253 -6.66467 -17.811
ltibia 25.656
lfoot -22.8168 6.31601
ltoes -11.6082
96
root 11.8906 18.2144 5.66028 -176.441 -6.77187 -177.682
lowerback -6.12294 0.951573 -1.28567
upperback 1.00184 1.3345 0.71084
thorax 4.42564 0.618579 1.58859
lowerneck -13.1514 3.20829 -4.48075
upperneck 25.2618 1.60473 10.4123
head 10.0197 1.02097 4.57638
rclavicle -1.35546e-014 4.77083e-015
rhumerus -41.2659 -18.3078 -84.1268
rradius 31.6712
rwrist 50.4721
rhand -34.6975 -11.6372
rfingers 7.12502
rthumb -7.85285 -41.4713
lclavicle -1.35546e-014 4.77083e-015
lhumerus -37.2677 -1.84775 90.6973
lradius 25.0128
lwrist -35.7858
lhand -25.1717 13.2536
lfingers 7.12502
lthumb 1.34573 43.2291
rfemur 170.036 62.0501 -165.082
rtibia 27.5143
rfoot -67.2535 -40.7445
rtoes -29.0477
lfemur -9.21755 -6.70391 -17.864
ltibia 25.6453
lfoot -22.8891 6.37564
ltoes -11.5596
97
root 11.875 18.2114 5.64919 -176.439 -6.77922 -177.699
lowerback -6.06729 0.924619 -1.31757
upperback 0.966894 1.29897 0.734932
thorax 4.3579 0.600676 1.62628
lowerneck -13.1305 3.17411 -4.64348
upperneck 25.3059 1.55303 10.5243
head 10.0312 0.989701 4.64002
rclavicle 2.46617e-014 -4.57205e-015
rhumerus -41.3396 -18.3166 -84.0233
rradius 31.662
rwrist 50.4212
rhand -34.7368 -11.4329
rfingers 7.12502
rthumb -7.89071 -41.2656
lclavicle 2.46617e-014 -4.57205e-015
lhumerus -37.322 -1.67839 90.6863
lradius 24.9919
lwrist -35.9367
lhand -25.1257 13.1959
lfingers 7.12502
lthumb 1.39018 43.1711
rfemur 169.916 61.8024 -165.285
rtibia 27.4752
rfoot -66.8776 -40.858
rtoes -28.8462
lfemur -9.17316 -6.72658 -17.9431
ltibia 25.6494
lfoot -22.9219 6.39403
ltoes -11.5822
98
root 11.8609 18.2112 5.63988 -176.453 -6.77037 -177.678
lowerback -6.03277 0.937201 -1.29884
upperback 0.985073 1.31529 0.71207
thorax 4.35762 0.609557 1.59316
lowerneck -13.0586 3.10279 -4.50086
upperneck 25.1643 1.48126 10.3584
head 9.97839 0.954736 4.53987
rclavicle -6.58474e-015 -5.1684e-015
rhumerus -41.3431 -18.4005 -84.0421
rradius 31.713
rwrist 50.498
rhand -34.7255 -11.5877
rfingers 7.12502
rthumb -7.87985 -41.4209
lclavicle -6.58474e-015 -5.1684e-015
lhumerus -37.2671 -1.55342 90.5815
lradius 24.9405
lwrist -36.1133
lhand -25.0698 13.0285
lfingers 7.12502
lthumb 1.44414 43.0033
rfemur 169.762 61.3014 -165.482
rtibia 27.4281
rfoot -66.2424 -40.9626
rtoes -28.8684
lfemur -9.13132 -6.71307 -17.9663
ltibia 25.6566
lfoot -22.9521 6.36892
ltoes -11.5461
99
root 11.8479 18.2111 5.62992 -176.446 -6.77051 -177.628
lowerback -6.03693 0.945854 -1.24924
upperback 0.983405 1.32396 0.693178
thorax 4.35943 0.61535 1.54665
lowerneck -13.0208 3.00699 -4.65155
upperneck 25.1034 1.3407 10.5145
head 9.95734 0.890476 4.60266
rclavicle -1.62134e-014 3.18055e-015
rhumerus -41.3681 -18.4874 -84.0653
rradius 31.7356
rwrist 50.4882
rhand -34.7275 -11.7475
rfingers 7.12502
rthumb -7.88178 -41.5806
lclavicle -1.62134e-014 3.18055e-015
lhumerus -37.2835 -2.02123 90.7669
lradius 24.9715
lwrist -35.6688
lhand -25.164 13.1299
lfingers 7.12502
lthumb 1.3532 43.1053
rfemur 169.681 60.9219 -165.579
rtibia 27.3794
rfoot -65.6282 -41.0528
rtoes -28.5803
lfemur -9.1172 -6.59711 -17.945
ltibia 25.6636
lfoot -22.9413 6.24902
ltoes -11.4894
100
root 11.8348 18.2108 5.61882 -176.4 -6.77196 -177.668
lowerback -6.05068 0.942268 -1.29236
upperback 0.975558 1.32393 0.66684
thorax 4.35872 0.614728 1.54379
lowerneck -13.1556 3.00591 -4.67698
upperneck 25.2389 1.27988 10.6772
head 10.0355 0.875641 4.66796
rclavicle 1.19519e-014 -7.95139e-016
rhumerus -41.3696 -18.5101 -84.042
rradius 31.7539
rwrist 50.4735
rhand -34.6656 -11.8473
rfingers 7.12502
rthumb -7.82202 -41.6826
lclavicle 1.19519e-014 -7.95139e-016
lhumerus -37.302 -1.87275 90.6642
lradius 25.016
lwrist -35.9249
lhand -25.1325 13.2786
lfingers 7.12502
lthumb 1.38362 43.2538
rfemur 169.629 60.4851 -165.756
rtibia 27.3351
rfoot -65.0571 -41.0798
rtoes -28.75
lfemur -9.11693 -6.51712 -18.0328
ltibia 25.6606
lfoot -22.9418 6.17344
ltoes -11.5135
101
root 11.8177 18.2085 5.60618 -176.378 -6.75716 -177.716
lowerback -6.04946 0.923173 -1.30737
upperback 0.973707 1.3019 0.620841
thorax 4.35761 0.604168 1.50246
lowerneck -13.1449 2.9532 -4.63255
upperneck 25.201 1.21585 10.6116
head 10.0275 0.843421 4.62745
rclavicle -4.7522e-014 2.38542e-015
rhumerus -41.3778 -18.274 -84.1348
rradius 31.8094
rwrist 50.1685
rhand -34.6748 -11.9551
rfingers 7.12502
rthumb -7.83092 -41.7901
lclavicle -4.7522e-014 2.38542e-015
lhumerus -37.3134 -1.7798 90.5832
lradius 25.0362
lwrist -36.0071
lhand -24.9605 13.2675
lfingers 7.12502
lthumb 1.54971 43.2416
rfemur 169.53 60.0942 -165.996
rtibia 27.284
rfoot -64.4944 -41.2081
rtoes -28.4315
lfemur -9.07312 -6.56442 -18.1606
ltibia 25.6696
lfoot -23.0222 6.22384
ltoes -11.4414
102
root 11.8021 18.2068 5.59663 -176.362 -6.7572 -177.714
lowerback -6.02535 0.915844 -1.33614
upperback 0.956274 1.29237 0.652405
thorax 4.32487 0.598676 1.5496
lowerneck -13.0769 2.88957 -4.81242
upperneck 25.1471 1.13676 10.7364
head 9.9977 0.801041 4.69062
rclavicle 7.28049e-015 -6.75868e-015
rhumerus -41.4037 -18.3073 -84.028
rradius 31.7761
rwrist 50.2208
rhand -34.7442 -11.8821
rfingers 7.12502
rthumb -7.89787 -41.7145
lclavicle 7.28049e-015 -6.75868e-015
lhumerus -37.3201 -1.80627 90.6712
lradius 24.998
lwrist -35.8191
lhand -24.938 13.0455
lfingers 7.12502
lthumb 1.57142 43.0195
rfemur 169.467 59.6517 -166.14
rtibia 27.2307
rfoot -63.8814 -41.3092
rtoes -28.1769
lfemur -9.05723 -6.64323 -18.2175
ltibia 25.6838
lfoot -23.0841 6.28387
ltoes -11.3834
